<svg width="13" height="13" viewBox="0 0 13 13" fill="none" xmlns="http://www.w3.org/2000/svg">
<path fill-rule="evenodd" clip-rule="evenodd" d="M7.88608 6.51815L12.713 1.86994C13.0957 1.50143 13.0957 0.903678 12.713 0.53517C12.3303 0.166662 11.7096 0.166662 11.3269 0.53517L6.5 5.18338L1.67309 0.53517C1.29041 0.166662 0.669682 0.166662 0.287007 0.53517C-0.0956689 0.903678 -0.0956689 1.50143 0.287007 1.86994L5.11392 6.51815L0.287007 11.1664C-0.0956689 11.5349 -0.0956689 12.1326 0.287007 12.5011C0.477938 12.6858 0.728993 12.7773 0.980047 12.7773C1.2311 12.7773 1.48134 12.685 1.67309 12.5011L6.5 7.85291L11.3269 12.5011C11.5187 12.6858 11.7689 12.7773 12.02 12.7773C12.271 12.7773 12.5212 12.685 12.713 12.5011C13.0957 12.1326 13.0957 11.5349 12.713 11.1664L7.88608 6.51815Z" fill="black"/>
</svg>
